<?xml version="1.0" encoding="UTF-8" standalone="no"?>
<!-- Created with Inkscape (http://www.inkscape.org/) -->

<svg
   xmlns:dc="http://purl.org/dc/elements/1.1/"
   xmlns:cc="http://creativecommons.org/ns#"
   xmlns:rdf="http://www.w3.org/1999/02/22-rdf-syntax-ns#"
   xmlns:svg="http://www.w3.org/2000/svg"
   xmlns="http://www.w3.org/2000/svg"
   xmlns:sodipodi="http://sodipodi.sourceforge.net/DTD/sodipodi-0.dtd"
   xmlns:inkscape="http://www.inkscape.org/namespaces/inkscape"
   width="465.69464mm"
   height="465.83719mm"
   viewBox="0 0 465.69464 465.83719"
   version="1.1"
   id="svg3849"
   sodipodi:docname="csl_logo_filled.svg"
   inkscape:version="0.92.4 (5da689c313, 2019-01-14)">
  <defs
     id="defs3843" />
  <sodipodi:namedview
     id="base"
     pagecolor="#ffffff"
     bordercolor="#666666"
     borderopacity="1.0"
     inkscape:pageopacity="0.0"
     inkscape:pageshadow="2"
     inkscape:zoom="0.24748737"
     inkscape:cx="2799.0704"
     inkscape:cy="365.39215"
     inkscape:document-units="mm"
     inkscape:current-layer="layer1"
     showgrid="false"
     fit-margin-top="5"
     fit-margin-left="5"
     fit-margin-right="5"
     fit-margin-bottom="5"
     inkscape:window-width="3440"
     inkscape:window-height="1369"
     inkscape:window-x="-8"
     inkscape:window-y="-8"
     inkscape:window-maximized="1" />
  <metadata
     id="metadata3846">
    <rdf:RDF>
      <cc:Work
         rdf:about="">
        <dc:format>image/svg+xml</dc:format>
        <dc:type
           rdf:resource="http://purl.org/dc/dcmitype/StillImage" />
        <dc:title></dc:title>
      </cc:Work>
    </rdf:RDF>
  </metadata>
  <g
     inkscape:label="Layer 1"
     inkscape:groupmode="layer"
     id="layer1"
     transform="translate(958.53181,875.02038)">
    <path
       style="fill:#00529c;fill-opacity:1;stroke-width:0.26458335"
       d="m -734.06757,-414.42578 c -32.62118,-1.10892 -65.41387,-9.5563 -94.45625,-24.33185 -29.54468,-15.03108 -55.08349,-35.87274 -75.64459,-61.73181 -24.95051,-31.37951 -41.24623,-68.98852 -46.96342,-108.3872 -2.58514,-17.81487 -3.09759,-36.88795 -1.46086,-54.37187 5.07182,-54.17833 29.07024,-104.36436 68.00567,-142.21495 42.69913,-41.50943 99.41161,-64.55692 158.85382,-64.55692 47.82707,0 94.007,14.83932 132.82084,42.68025 10.83588,7.7725 19.93488,15.61433 30.03021,25.88105 23.92006,24.32613 41.90048,53.44718 52.90868,85.69078 8.85116,25.92548 12.871,52.91406 12.02627,80.74244 -1.18719,39.11028 -12.03289,76.16788 -32.20027,110.02214 -2.42242,4.06638 -8.22815,12.8389 -11.20667,16.93333 l -2.21342,3.04271 -0.0777,-1.91823 -0.0777,-1.91823 h -19.303 -19.30299 v -68.13021 -68.13021 h -24.20938 -24.20938 v 84.26979 84.26979 h 30.82891 30.82893 l -1.79091,1.68275 c -14.96097,14.05742 -33.69744,27.01663 -52.98776,36.64937 -26.06971,13.01806 -53.05843,20.60951 -82.41771,23.18261 -4.40828,0.38634 -18.03097,0.96276 -20.76979,0.87884 -0.65485,-0.0201 -3.81,-0.12555 -7.01146,-0.23437 z m -71.65035,-60.05817 c 11.69507,-0.96737 20.51264,-3.61447 27.79566,-8.34445 1.20055,-0.77968 2.18281,-1.53038 2.18281,-1.6682 0,-0.29453 -10.25059,-30.73757 -10.40011,-30.88709 -0.0559,-0.0558 -1.34032,0.48824 -2.85436,1.20912 -4.8139,2.29204 -9.2878,3.12412 -15.31875,2.84909 -3.93196,-0.17931 -5.92926,-0.65035 -9.1299,-2.15318 -13.08843,-6.1455 -20.2095,-25.98441 -19.15482,-53.36426 1.02637,-26.64481 9.45323,-42.58093 24.1046,-45.5844 2.6548,-0.54422 8.78165,-0.54904 12.10857,-0.01 3.13031,0.50766 6.71838,1.69328 9.14522,3.02189 l 1.86191,1.01931 4.81882,-14.46451 c 2.65035,-7.95547 4.81882,-14.555 4.81882,-14.66562 0,-0.36802 -3.69894,-2.60047 -6.69773,-4.04232 -5.34926,-2.57199 -11.28604,-4.21492 -19.23143,-5.32209 -4.88745,-0.68105 -18.20077,-0.67623 -22.62188,0.008 -8.37961,1.29723 -16.22746,4.05817 -22.62048,7.95809 -15.86289,9.67678 -27.13841,27.02052 -32.29274,49.67192 -5.6283,24.73431 -3.4586,53.84122 5.59274,75.0276 7.30326,17.09468 19.39221,29.59079 34.37152,35.52913 5.28193,2.09393 11.71947,3.62733 17.59771,4.19168 3.46612,0.33277 12.01071,0.3433 15.92382,0.0196 z m 102.26264,-0.11014 c 28.5909,-3.03438 48.81769,-22.08133 51.52486,-48.51945 0.52445,-5.12181 0.27524,-11.84362 -0.639,-17.23602 -2.36717,-13.9619 -10.9687,-24.9211 -26.99398,-34.393 -1.30969,-0.77409 -5.29828,-2.89454 -8.86354,-4.71212 -3.56526,-1.81756 -7.37526,-3.84292 -8.46667,-4.50078 -8.61565,-5.19324 -12.25755,-10.71573 -11.8119,-17.91131 0.49775,-8.03685 5.11008,-12.44954 13.95285,-13.34892 7.45755,-0.7585 17.82292,1.66995 25.57378,5.99155 1.23323,0.6876 1.68725,0.83203 1.78692,0.56851 0.0735,-0.19431 2.27314,-6.77188 4.88807,-14.6168 4.38891,-13.16688 4.7194,-14.2898 4.2985,-14.60533 -0.92167,-0.69098 -6.08108,-3.24667 -8.39343,-4.15767 -5.55456,-2.18833 -12.51945,-3.86927 -20.10833,-4.85303 -2.92333,-0.37896 -5.46103,-0.47724 -12.03854,-0.46624 -7.81876,0.0131 -8.57174,0.057 -12.17084,0.71016 -21.58716,3.91758 -37.23083,17.70489 -42.85303,37.7679 -4.82471,17.21715 -1.49997,34.42391 9.08659,47.02646 5.24515,6.24398 11.14955,10.58529 21.89876,16.10146 3.74903,1.92389 7.86366,4.1779 9.14361,5.0089 7.68887,4.99195 10.64181,9.42851 10.65697,16.01124 0.009,3.85979 -1.27622,7.10567 -3.81201,9.62829 -2.69431,2.68028 -6.18914,4.13335 -11.26554,4.68394 -7.97875,0.86538 -20.1578,-2.05322 -27.10037,-6.49433 -0.84825,-0.5426 -1.62865,-0.88889 -1.7342,-0.76951 -0.10556,0.11941 -2.55128,7.64262 -5.43494,16.71828 l -5.24303,16.50116 0.64058,0.50009 c 1.01326,0.79103 7.29634,3.84448 9.76869,4.74737 6.59552,2.40866 15.81872,4.06093 26.9875,4.83465 3.67279,0.25442 13.48566,0.12798 16.72167,-0.21545 z"
       id="path3862"
       inkscape:connector-curvature="0"
       sodipodi:nodetypes="csssssssssscccccccccccccccssccccccscsscsccccsscsccsscsccccccccscccccccccssssccscccccccc" />
  </g>
</svg>
