<svg xmlns="http://www.w3.org/2000/svg" version="1.1" xmlns:xlink="http://www.w3.org/1999/xlink" width="512" height="512" x="0" y="0" viewBox="0 0 24 24" style="enable-background:new 0 0 512 512" xml:space="preserve" fill-rule="evenodd" class=""><g><path d="M11 16.883c-.653-.157-1.186-.457-1.508-.801-.33-.354-.492-.767-.492-1.193v-1.778c0-.426.162-.839.492-1.193C9.966 11.41 10.899 11 12 11l.102.001c1.056.025 1.946.425 2.405.917.331.354.493.767.493 1.193v1.778c0 .426-.162.839-.493 1.193-.321.344-.854.644-1.507.801V20a1 1 0 0 1-2 0zm2-3.631a1.19 1.19 0 0 0-.197-.111C12.578 13.049 12.3 13 12 13s-.579.049-.804.141a1.18 1.18 0 0 0-.196.111v1.496c.05.034.131.085.196.111.225.092.504.141.804.141s.578-.049.803-.141a1.19 1.19 0 0 0 .197-.111zM12 7c1.907 0 3.59.546 4.638 1.341.89.674 1.362 1.537 1.362 2.437a1 1 0 0 1-2 0c0-.328-.245-.598-.569-.843C14.658 9.35 13.404 9 12 9c-1.405 0-2.659.35-3.431.935-.324.245-.569.515-.569.843a1 1 0 0 1-2 0c0-.9.471-1.763 1.361-2.437C8.409 7.546 10.093 7 12 7zm-.064-2c-2.703.011-5.107.717-6.595 1.845C4.532 7.458 4 8.182 4 9a1 1 0 0 1-2 0c0-1.39.758-2.707 2.133-3.749C5.91 3.905 8.768 3 12 3h.038c3.216.007 6.059.91 7.828 2.251C21.242 6.293 22 7.61 22 9a1 1 0 0 1-2 0c0-.818-.532-1.542-1.342-2.155C17.158 5.708 14.729 5 12 5z" fill="#ffffff" opacity="1" data-original="#000000" class=""></path></g></svg>