<svg xmlns="http://www.w3.org/2000/svg" version="1.1" xmlns:xlink="http://www.w3.org/1999/xlink" width="512" height="512" x="0" y="0" viewBox="0 0 512 512" style="enable-background:new 0 0 512 512" xml:space="preserve" class=""><g transform="matrix(0.9,0,0,0.9,25.599999999999994,25.599999999999994)"><path d="M96 136v240M176 136v160M256 136v240M336 136v160M416 136v240M20 136V96c0-22.091 17.909-40 40-40h40M412 56h40c22.091 0 40 17.909 40 40v40M492 376v40c0 22.091-17.909 40-40 40h-40M100 456H60c-22.091 0-40-17.909-40-40v-40M336 376h0M176 376h0" style="stroke-width:40;stroke-linecap:round;stroke-linejoin:round;stroke-miterlimit:10;" fill="none" stroke="#ffffff" stroke-width="40" stroke-linecap="round" stroke-linejoin="round" stroke-miterlimit="10" data-original="#000000" opacity="1"></path></g></svg>