<?xml version="1.0" encoding="UTF-8" standalone="no"?>
<!-- Created with Inkscape (http://www.inkscape.org/) -->

<svg
   xmlns:dc="http://purl.org/dc/elements/1.1/"
   xmlns:cc="http://creativecommons.org/ns#"
   xmlns:rdf="http://www.w3.org/1999/02/22-rdf-syntax-ns#"
   xmlns:svg="http://www.w3.org/2000/svg"
   xmlns="http://www.w3.org/2000/svg"
   xmlns:sodipodi="http://sodipodi.sourceforge.net/DTD/sodipodi-0.dtd"
   xmlns:inkscape="http://www.inkscape.org/namespaces/inkscape"
   width="108.43122mm"
   height="55.558266mm"
   viewBox="0 0 108.43122 55.558267"
   version="1.1"
   id="svg4832"
   inkscape:version="0.92.4 (5da689c313, 2019-01-14)"
   sodipodi:docname="csl.svg">
  <defs
     id="defs4826">
    <radialGradient
       id="radialGradient4860"
       spreadMethod="pad"
       gradientTransform="matrix(246.46773,0,0,-246.46773,422.81754,390.875)"
       gradientUnits="userSpaceOnUse"
       r="1"
       cy="0"
       cx="0"
       fy="0"
       fx="0">
      <stop
         id="stop4856"
         offset="0"
         style="stop-opacity:1;stop-color:#ffffff" />
      <stop
         id="stop4858"
         offset="1"
         style="stop-opacity:1;stop-color:#00529c" />
    </radialGradient>
    <clipPath
       id="clipPath4870"
       clipPathUnits="userSpaceOnUse">
      <path
         inkscape:connector-curvature="0"
         id="path4868"
         d="M 0,500 H 1700 V 0 H 0 Z" />
    </clipPath>
  </defs>
  <sodipodi:namedview
     id="base"
     pagecolor="#ffffff"
     bordercolor="#666666"
     borderopacity="1.0"
     inkscape:pageopacity="0.0"
     inkscape:pageshadow="2"
     inkscape:zoom="1.979899"
     inkscape:cx="100.48172"
     inkscape:cy="125.6226"
     inkscape:document-units="mm"
     inkscape:current-layer="layer1"
     showgrid="false"
     fit-margin-top="0"
     fit-margin-left="0"
     fit-margin-right="0"
     fit-margin-bottom="0"
     inkscape:window-width="2291"
     inkscape:window-height="1360"
     inkscape:window-x="-7"
     inkscape:window-y="0"
     inkscape:window-maximized="0" />
  <metadata
     id="metadata4829">
    <rdf:RDF>
      <cc:Work
         rdf:about="">
        <dc:format>image/svg+xml</dc:format>
        <dc:type
           rdf:resource="http://purl.org/dc/dcmitype/StillImage" />
        <dc:title></dc:title>
      </cc:Work>
    </rdf:RDF>
  </metadata>
  <g
     inkscape:label="Layer 1"
     inkscape:groupmode="layer"
     id="layer1"
     transform="translate(-231.86275,-268.94331)">
    <g
       transform="matrix(0.35277777,0,0,-0.35277777,154.82217,394.68233)"
       inkscape:label="CSL-Logo"
       id="g4842">
      <g
         id="g4844">
        <g
           id="g4846">
          <g
             id="g4852">
            <g
               id="g4854" />
          </g>
        </g>
      </g>
      <g
         id="g4864">
        <g
           clip-path="url(#clipPath4870)"
           id="g4866">
          <g
             transform="translate(293.8608,120.9033)"
             id="g4872">
            <path
               inkscape:connector-curvature="0"
               id="path4874"
               style="fill:#ffffff;fill-opacity:1;fill-rule:nonzero;stroke:none"
               d="m -13.63706,78.034286 c -43.823,0 -61.841,38.490004 -61.841,78.737004 0,39.825 18.909,78.751 62.053,78.751 15.3520003,0 26.697,-3.115 34.928,-9.115 l -8.897,-26.703 c -3.7819997,2.455 -8.4489997,4.236 -16.2429997,4.236 -20.6840003,0 -26.6900003,-23.581 -26.6900003,-46.719 0,-22.461 7.121,-45.375 26.4720003,-45.375 8.012,0 11.345,1.556 15.7939997,4.011 l 9.564,-28.484004 c -8.231,-6.224 -19.3459997,-9.339 -35.14,-9.339" />
          </g>
          <g
             transform="translate(387.4116,120.9033)"
             id="g4876">
            <path
               inkscape:connector-curvature="0"
               id="path4878"
               style="fill:#ffffff;fill-opacity:1;fill-rule:nonzero;stroke:none"
               d="m -13.63706,78.034286 c -19.794,0 -33.37,3.339 -42.267,9.339 l 9.782,30.703004 c 4.455,-3.328 13.8,-7.115 23.588,-7.115 10.224,0 16.2300003,5.114 16.2300003,13.12 0,7.782 -4.8910003,12.679 -18.4600003,19.121 -23.14,11.14 -29.588,28.036 -29.588,42.945 0,27.127 19.8,49.375 51.1630003,49.375 17.8049997,0 30.4779997,-4.224 38.0359997,-9.115 l -8.897,-26.703 c -5.334,3.115 -13.345,6.455 -22.2419997,6.455 -9.788,0 -15.1210003,-4.667 -15.1210003,-13.121 0,-8.679 6.0000003,-13.346 18.4600003,-19.358 29.1329997,-14.005 33.3629997,-29.587 33.3629997,-46.259 0,-28.031004 -22.242,-49.387004 -54.047,-49.387004" />
          </g>
          <g
             transform="translate(460.1919,123.127)"
             id="g4880">
            <path
               inkscape:connector-curvature="0"
               id="path4882"
               style="fill:#ffffff;fill-opacity:1;fill-rule:nonzero;stroke:none"
               d="M -13.63706,78.034286 V 231.08029 h 44.042 v -123.683 h 35.15 V 78.034286 Z" />
          </g>
          <g
             transform="translate(678.7632,123.9268)"
             id="g4884" />
          <g
             transform="translate(736.8472,129.1641)"
             id="g4888" />
          <g
             transform="translate(800.2617,121.0186)"
             id="g4892" />
          <g
             transform="translate(908.835,121.0186)"
             id="g4896" />
          <g
             transform="translate(972.7676,121.0186)"
             id="g4900" />
          <g
             transform="translate(1059.9658,160.1934)"
             id="g4904" />
          <g
             transform="translate(1185.127,122.7568)"
             id="g4908" />
          <g
             transform="translate(1215.1572,121.0186)"
             id="g4912" />
          <g
             transform="translate(1288.1982,121.0186)"
             id="g4916" />
          <g
             transform="translate(1435.7109,123.9268)"
             id="g4920" />
          <g
             transform="translate(1462.0615,121.0186)"
             id="g4924" />
          <g
             transform="translate(617.0918,16.0986)"
             id="g4928" />
          <g
             transform="translate(694.7637,15.5176)"
             id="g4932" />
          <g
             transform="translate(741.9863,16.0986)"
             id="g4936" />
          <g
             transform="translate(820.4365,15.5176)"
             id="g4940" />
          <g
             transform="translate(871.1025,15.5176)"
             id="g4944" />
          <g
             transform="translate(930.7383,15.5176)"
             id="g4948" />
          <g
             transform="translate(1016.9912,16.0986)"
             id="g4952" />
          <g
             transform="translate(1110.3223,15.5176)"
             id="g4956" />
          <g
             transform="translate(1200.9883,15.5176)"
             id="g4962" />
          <g
             transform="translate(1341.8818,15.5176)"
             id="g4968" />
          <g
             transform="translate(1392.5479,15.5176)"
             id="g4972" />
          <g
             transform="translate(1467.1162,25.7959)"
             id="g4976" />
        </g>
      </g>
    </g>
  </g>
</svg>
