<svg xmlns="http://www.w3.org/2000/svg" version="1.1" xmlns:xlink="http://www.w3.org/1999/xlink" width="512" height="512" x="0" y="0" viewBox="0 0 1024 1024" style="enable-background:new 0 0 512 512" xml:space="preserve" class=""><g><path d="M922.1 179.1V177.8v.4c0-.9-.1-1.8-.2-2.7v-.1c-2-18.5-15.8-32.4-31.7-41.2-17.8-9.7-37.9-15.7-57.6-20.5-28.3-6.9-57.1-11.3-85.9-15.1-33.9-4.5-68-7.6-102.2-9.7-79.3-5-158.9-5.4-238.2-1.5-66.1 3.2-132.8 8.9-197.7 22.5-22.4 4.7-44.2 10.8-65.3 19.9-15.7 6.8-30.8 17.1-37.7 33.4-1.8 4.3-2.9 8.7-3.2 13.1-.1 1-.1 2.1-.1 3.1 0 1.6.1 3.1.3 4.7-.3-1.5-.4-3.1-.5-4.7v95.4c0 6.5-.3 13.1.1 19.6 1 12.9 6.1 24.3 14.6 34 2.3 2.7 4.7 5.3 7.1 8 10 11.3 19.9 22.5 29.9 33.8 33.2 37.5 66.3 74.9 99.5 112.4 35.4 40 70.8 80 106.1 120 17.6 19.9 34.7 40.4 52.8 59.9v202.2c0 7 4.7 12.2 11 14.5 19.1 6.7 38.2 13.5 57.2 20.2l91.8 32.4c7 2.5 14 4.9 21 7.4 9.3 3.3 19-5.3 19-14.5V661.9c14.2-16 28.3-32 42.5-48 34.3-38.8 68.6-77.5 102.9-116.3 34.4-38.9 68.8-77.8 103.2-116.6 15.9-18 32.3-35.8 47.9-54.1 9.9-11.6 13.6-25.4 13.6-40.4V179.6c0 1.6-.1 3.2-.4 4.7.2-1.7.4-3.4.4-5.1v-.1zm-113.5 9.8c-21 4.8-42.3 8.3-63.7 11.3 1.1-.1 2.1-.3 3.2-.4-2.7.4-5.3.7-8 1.1 1.4-.2 2.9-.4 4.3-.6-57.8 7.6-116.2 11.2-174.5 12.7-66.3 1.7-132.8.7-198.9-3.8-30.5-2.1-61-4.9-91.3-8.9 1.4.2 2.9.4 4.3.6-2.7-.4-5.3-.7-8-1.1 1 .1 2.1.3 3.1.4-21.3-3-42.6-6.5-63.6-11.3-11.9-2.7-23.8-5.7-35.3-9.7 11.6-4 23.4-7 35.3-9.7 21-4.8 42.3-8.3 63.7-11.3-1.1.1-2.1.3-3.2.4 2.7-.4 5.3-.7 8-1.1-1.4.2-2.9.4-4.3.6 57.8-7.6 116.2-11.2 174.5-12.7 66.3-1.7 132.8-.7 198.9 3.8 30.5 2.1 61 4.9 91.3 8.9-1.4-.2-2.9-.4-4.3-.6 2.7.4 5.3.7 8 1.1l-3.1-.4c21.3 3 42.6 6.5 63.6 11.3 11.9 2.7 23.8 5.7 35.3 9.7-11.6 3.9-23.4 7-35.3 9.7z" fill="#ffffff" opacity="1" data-original="#000000" class=""></path></g></svg>