<svg xmlns="http://www.w3.org/2000/svg" version="1.1" xmlns:xlink="http://www.w3.org/1999/xlink" width="512" height="512" x="0" y="0" viewBox="0 0 64 64" style="enable-background:new 0 0 512 512" xml:space="preserve" class=""><g><path d="M32 2a30 30 0 1 0 30 30A30.037 30.037 0 0 0 32 2zm-.47 23.95-2.79 16.79A8.66 8.66 0 0 1 20.17 50h-6.52a.715.715 0 0 1-.71-.72v-4.61a.706.706 0 0 1 .71-.71h6.52a2.624 2.624 0 0 0 2.6-2.21l2.64-15.8h-4.02a.709.709 0 0 1-.71-.72v-4.61a.7.7 0 0 1 .71-.71h5.02l.44-2.65A8.668 8.668 0 0 1 35.42 10h6.52a.715.715 0 0 1 .72.71v4.62a.708.708 0 0 1-.72.71h-6.52a2.642 2.642 0 0 0-2.61 2.21l-.27 1.66h4.49a.706.706 0 0 1 .71.71v4.61a.715.715 0 0 1-.71.72zm19.33 19.7a.73.73 0 0 1 0 1.01l-3.15 3.13a.71.71 0 0 1-1 0l-4.05-4.06-4.07 4.06a.7.7 0 0 1-1 0l-3.13-3.13a.695.695 0 0 1 0-1.01l4.05-4.06-4.05-4.06a.695.695 0 0 1 0-1.01l3.13-3.13a.7.7 0 0 1 1 0l4.07 4.06 4.05-4.06a.71.71 0 0 1 1-.01l3.15 3.14a.73.73 0 0 1 0 1.01l-4.06 4.06z" fill="#ffffff" opacity="1" data-original="#000000" class=""></path></g></svg>