<svg xmlns="http://www.w3.org/2000/svg" version="1.1" width="32" height="32" x="0" y="0" viewBox="0 0 32 32" style="enable-background:new 0 0 512 512" xml:space="preserve" class=""><g transform="scale(1.0,1.0)"><g transform="scale(0.0625,0.0625)"><g transform="matrix(0.9,0,0,0.9,25.60000000983382,25.600000009735737)"><path d="M256 151c-41.353 0-75 33.647-75 75s33.647 75 75 75 75-33.647 75-75-33.647-75-75-75z" fill="#ffffff" opacity="1" data-original="#000000" class="" /><path d="m501.746 211.776-27.045-8.687a222.565 222.565 0 0 0-26.66-64.292l12.29-24.58a14.995 14.995 0 0 0-2.813-17.314l-42.422-42.422c-4.585-4.585-11.528-5.684-17.314-2.813l-24.595 12.305c-18.252-11.147-38.042-19.585-59.019-25.166l-14.75-30.516A15.006 15.006 0 0 0 286 0h-60a15.006 15.006 0 0 0-13.418 8.291l-14.751 30.517c-20.977 5.581-40.767 14.019-59.019 25.166l-24.595-12.305c-5.801-2.915-12.729-1.787-17.314 2.813L54.481 96.903a14.998 14.998 0 0 0-2.813 17.314l12.305 24.595c-11.147 18.252-19.585 38.042-25.166 59.019L8.291 212.582A15.006 15.006 0 0 0 0 226v60a15.006 15.006 0 0 0 8.291 13.418l30.517 14.751c5.068 18.94 12.612 37.119 22.5 54.214l-10.459 31.362a15.032 15.032 0 0 0 3.633 15.352l42.422 42.422a15.032 15.032 0 0 0 15.352 3.633l31.362-10.459c18.853 10.942 38.789 18.984 59.473 23.994l8.687 27.06A14.98 14.98 0 0 0 226 512h60c6.46 0 12.188-4.131 14.224-10.254l8.687-27.06c20.684-5.01 40.62-13.052 59.473-23.994l31.362 10.459c5.405 1.787 11.353.381 15.352-3.633l42.422-42.422a15.032 15.032 0 0 0 3.633-15.352l-10.459-31.362c10.942-18.853 18.984-38.789 23.994-59.473l27.06-8.687A14.98 14.98 0 0 0 512 286v-60c0-6.46-4.131-12.187-10.254-14.224zM256 421c-90.981 0-165-74.019-165-165S165.019 91 256 91s165 74.019 165 165-74.019 165-165 165z" fill="#ffffff" opacity="1" data-original="#000000" class="" /><path d="M328.951 301.247C310.036 319.587 284.359 331 256 331s-54.04-11.413-72.953-29.753c-12.393 12.252-21.903 27.437-27.092 44.562C180.687 373.334 216.167 391 256 391c39.825 0 75.302-17.659 100.032-45.176-5.184-17.133-14.691-32.324-27.081-44.577z" fill="#ffffff" opacity="1" data-original="#000000" class="" /></g></g></g></svg>