<svg xmlns="http://www.w3.org/2000/svg" version="1.1" xmlns:xlink="http://www.w3.org/1999/xlink" width="512" height="512" x="0" y="0" viewBox="0 0 512 512" style="enable-background:new 0 0 512 512" xml:space="preserve" class=""><g transform="matrix(0.9,0,0,0.9,25.599999999999994,25.599999999999994)"><g data-name="Layer 2"><path d="M256 0C114.62 0 0 114.62 0 256s114.62 256 256 256 256-114.62 256-256S397.38 0 256 0zm49.13 156 52.75 52.79.1.1s-62.83 62.77-92.35 92.43a46 46 0 0 1-20.3 12.26c-15 4.29-30.06 8.57-45 13.05-4 1.21-7.53 1.07-10.64-1.89-3.3-3.14-3.55-6.85-2.29-11.06 4.67-15.68 8.88-31.52 14-47.07a38.52 38.52 0 0 1 8.51-14.69C240.86 220.3 305.13 156 305.13 156zm53.05 204.14A33.82 33.82 0 0 1 324.36 394H149.82A33.82 33.82 0 0 1 116 360.14V185.6a33.82 33.82 0 0 1 33.82-33.82h67.44a19.83 19.83 0 1 1 0 39.66h-61.6V354.3h162.86V299a19.83 19.83 0 0 1 19.83-19.83A19.83 19.83 0 0 1 358.18 299zm30.6-182-20.45 20.45-52.91-52.92 20.44-20.44a24.67 24.67 0 0 1 34.88 0l18 18a24.67 24.67 0 0 1 .04 34.95z" data-name="03.square_pen" fill="#ffffff" opacity="1" data-original="#000000" class=""></path></g></g></svg>