<svg xmlns="http://www.w3.org/2000/svg" version="1.1" xmlns:xlink="http://www.w3.org/1999/xlink" width="512" height="512" x="0" y="0" viewBox="0 0 100 100" style="enable-background:new 0 0 512 512" xml:space="preserve"><g transform="matrix(0.9,0,0,0.9,5.000023317337032,4.999935817718502)"><path d="m64.128 13.19 22.66 22.572L32.02 90.528 9.45 67.956zM2.548 94.554c-.113.802.162 1.61.74 2.177.563.585 1.374.86 2.177.74l19.025-2.177-19.787-19.83zm92.054-80.19L85.547 5.31a9.534 9.534 0 0 0-13.518 0l-1.72 1.72 22.639 22.572 1.72-1.72a9.534 9.534 0 0 0 0-13.517z" fill="#ffffff" opacity="1" data-original="#000000"></path></g></svg>